HIERARCHY
ROOT hip
{
  OFFSET 0 0 0
  CHANNELS 6 Xposition Yposition Zposition Zrotation Yrotation Xrotation
  JOINT abdomen
  {
    OFFSET 0 20.6881 -0.73152
    CHANNELS 3 Zrotation Xrotation Yrotation
    JOINT chest
    {
      OFFSET 0 11.7043 -0.48768
      CHANNELS 3 Zrotation Xrotation Yrotation
      JOINT neck
      {
        OFFSET 0 22.1894 -2.19456
        CHANNELS 3 Zrotation Xrotation Yrotation
        JOINT head
        {
          OFFSET -0.24384 7.07133 1.2192
          CHANNELS 3 Zrotation Xrotation Yrotation
          JOINT leftEye
          {
            OFFSET 4.14528 8.04674 8.04672
            CHANNELS 3 Zrotation Xrotation Yrotation
            End Site
            {
              OFFSET 1 0 0
            }
          }
          JOINT rightEye
          {
            OFFSET -3.6576 8.04674 8.04672
            CHANNELS 3 Zrotation Xrotation Yrotation
            End Site
            {
              OFFSET 1 0 0
            }
          }
        }
      }
      JOINT rCollar
      {
        OFFSET -2.68224 19.2634 -4.8768
        CHANNELS 3 Zrotation Xrotation Yrotation
        JOINT rShldr
        {
          OFFSET -8.77824 -1.95073 1.46304
          CHANNELS 3 Zrotation Xrotation Yrotation
          JOINT rForeArm
          {
            OFFSET -28.1742 -1.7115 0.48768
            CHANNELS 3 Zrotation Xrotation Yrotation
            JOINT rHand
            {
              OFFSET -22.5879 0.773209 7.07136
              CHANNELS 3 Zrotation Xrotation Yrotation
              JOINT rThumb1
              {
                OFFSET -1.2192 -0.487915 3.41376
                CHANNELS 3 Zrotation Xrotation Yrotation
                JOINT rThumb2
                {
                  OFFSET -3.37035 -0.52449 3.41376
                  CHANNELS 3 Zrotation Xrotation Yrotation
                  End Site
                  {
                    OFFSET -1.78271 -1.18214 1.43049
                  }
                }
              }
              JOINT rIndex1
              {
                OFFSET -7.75947 0.938293 5.60832
                CHANNELS 3 Zrotation Xrotation Yrotation
                JOINT rIndex2
                {
                  OFFSET -2.54057 -0.884171 1.56538
                  CHANNELS 3 Zrotation Xrotation Yrotation
                  End Site
                  {
                    OFFSET -1.62519 -0.234802 1.16502
                  }
                }
              }
              JOINT rMid1
              {
                OFFSET -8.24714 1.18213 3.41376
                CHANNELS 3 Zrotation Xrotation Yrotation
                JOINT rMid2
                {
                  OFFSET -3.10165 -0.590103 1.0647
                  CHANNELS 3 Zrotation Xrotation Yrotation
                  End Site
                  {
                    OFFSET -2.48547 -0.328903 0.83742
                  }
                }
              }
              JOINT rRing1
              {
                OFFSET -8.82822 0.546677 1.51678
                CHANNELS 3 Zrotation Xrotation Yrotation
                JOINT rRing2
                {
                  OFFSET -2.60934 -0.819778 -0.0198488
                  CHANNELS 3 Zrotation Xrotation Yrotation
                  End Site
                  {
                    OFFSET -2.33842 -0.294052 0.168128
                  }
                }
              }
              JOINT rPinky1
              {
                OFFSET -8.27202 -0.0477905 -0.4584
                CHANNELS 3 Zrotation Xrotation Yrotation
                JOINT rPinky2
                {
                  OFFSET -1.82734 -0.647385 -0.700984
                  CHANNELS 3 Zrotation Xrotation Yrotation
                  End Site
                  {
                    OFFSET -1.69225 -0.51767 -0.607171
                  }
                }
              }
            }
          }
        }
      }
      JOINT lCollar
      {
        OFFSET 2.68224 19.2634 -4.8768
        CHANNELS 3 Zrotation Xrotation Yrotation
        JOINT lShldr
        {
          OFFSET 8.77824 -1.95073 1.46304
          CHANNELS 3 Zrotation Xrotation Yrotation
          JOINT lForeArm
          {
            OFFSET 28.1742 -1.7115 0.48768
            CHANNELS 3 Zrotation Xrotation Yrotation
            JOINT lHand
            {
              OFFSET 22.5879 0.773209 7.07136
              CHANNELS 3 Zrotation Xrotation Yrotation
              JOINT lThumb1
              {
                OFFSET 1.2192 -0.487915 3.41376
                CHANNELS 3 Zrotation Xrotation Yrotation
                JOINT lThumb2
                {
                  OFFSET 3.37035 -0.52449 3.41376
                  CHANNELS 3 Zrotation Xrotation Yrotation
                  End Site
                  {
                    OFFSET 1.78271 -1.18214 1.43049
                  }
                }
              }
              JOINT lIndex1
              {
                OFFSET 7.75947 0.938293 5.60832
                CHANNELS 3 Zrotation Xrotation Yrotation
                JOINT lIndex2
                {
                  OFFSET 2.54057 -0.884171 1.56538
                  CHANNELS 3 Zrotation Xrotation Yrotation
                  End Site
                  {
                    OFFSET 1.62519 -0.234802 1.16502
                  }
                }
              }
              JOINT lMid1
              {
                OFFSET 8.24714 1.18213 3.41376
                CHANNELS 3 Zrotation Xrotation Yrotation
                JOINT lMid2
                {
                  OFFSET 3.10165 -0.590103 1.0647
                  CHANNELS 3 Zrotation Xrotation Yrotation
                  End Site
                  {
                    OFFSET 2.48547 -0.328903 0.83742
                  }
                }
              }
              JOINT lRing1
              {
                OFFSET 8.82822 0.546677 1.51678
                CHANNELS 3 Zrotation Xrotation Yrotation
                JOINT lRing2
                {
                  OFFSET 2.60934 -0.819778 -0.0198488
                  CHANNELS 3 Zrotation Xrotation Yrotation
                  End Site
                  {
                    OFFSET 2.33842 -0.294052 0.168128
                  }
                }
              }
              JOINT lPinky1
              {
                OFFSET 8.27202 -0.0477905 -0.4584
                CHANNELS 3 Zrotation Xrotation Yrotation
                JOINT lPinky2
                {
                  OFFSET 1.82734 -0.647385 -0.700984
                  CHANNELS 3 Zrotation Xrotation Yrotation
                  End Site
                  {
                    OFFSET 1.69225 -0.51767 -0.607171
                  }
                }
              }
            }
          }
        }
      }
    }
  }
  JOINT rButtock
  {
    OFFSET -8.77824 4.35084 1.2192
    CHANNELS 3 Zrotation Xrotation Yrotation
    JOINT rThigh
    {
      OFFSET 0 -1.70687 -2.19456
      CHANNELS 3 Zrotation Xrotation Yrotation
      JOINT rShin
      {
        OFFSET 0 -36.8199 0.73152
        CHANNELS 3 Zrotation Xrotation Yrotation
        JOINT rFoot
        {
          OFFSET 0.73152 -45.1104 -5.12064
          CHANNELS 3 Zrotation Xrotation Yrotation
          End Site
          {
            OFFSET -1.1221 -3.69964 12.103
          }
        }
      }
    }
  }
  JOINT lButtock
  {
    OFFSET 8.77824 4.35084 1.2192
    CHANNELS 3 Zrotation Xrotation Yrotation
    JOINT lThigh
    {
      OFFSET 0 -1.70687 -2.19456
      CHANNELS 3 Zrotation Xrotation Yrotation
      JOINT lShin
      {
        OFFSET 0 -36.8199 0.73152
        CHANNELS 3 Zrotation Xrotation Yrotation
        JOINT lFoot
        {
          OFFSET -0.73152 -45.1104 -5.12064
          CHANNELS 3 Zrotation Xrotation Yrotation
          End Site
          {
            OFFSET 1.1221 -3.69964 12.103
          }
        }
      }
    }
  }
}
MOTION
Frames:	8
Frame Time:	0.03333
-28.2703 72.15559999999999 12.883600000000001 -167.83846 -73.427078 171.357205 4.385437 4.312151 -0.14782 -2.149229 -0.688125 -4.757975 -6.619784 28.872645 161.233095 -32.642559 31.372545 -142.061304 2.021038 0.00299 0.169539 26.171485 -4.640208 -19.774861 138.336943 -69.718909 107.694668 25.357541 -3.969545 -21.615224 123.984759 -1.01472 -9.332657 -58.601922 65.010776 35.64985 -72.181322 57.545473 38.772536 -91.879511 -67.018561 -143.746194 40.586185 -75.277937 -44.159255 179.405694 -13.122295 38.592593 118.202173 -81.642134 58.563701 -85.802672 14.705314 63.793716 -22.258439 -25.904061 -9.424587 43.165526 55.843315 -40.237183 -25.029412 -71.930819 -2.982171 149.480547 55.702141 174.04942 113.61829 -66.623652 135.757089 -129.089747 30.510722 95.719237 8.418016 2.014835 -93.48022 0.680645 22.466381 27.00575 -3.636915 -4.338971 -37.839427 -170.545542 -2.494708 -148.557456 -18.95829 -50.916556 -46.999873 -167.790914 21.35984 77.813598 9.983734 -24.609957 -41.270281 61.647144 -58.770086 126.836787 17.777351 36.406759 -36.871657 136.388448 36.323397 -140.47856 -105.494005 -46.647041 -33.099685 -10.483042 -58.013748 -100.718918 -80.845967 76.697328 -98.912409 160.884068 60.627415 -158.311298 -43.994211 -45.771272 -132.516874 -66.199613 -28.053772 -160.869234 -7.038609 -2.516834 8.814467 15.743882 -36.620322 25.295691 19.89009 53.068303 -143.858257 106.753256 -27.620792 -155.815772
-30.0777 73.2132 13.2768 -163.81218 -79.386335 166.18994 1.260202 10.241923 -0.0 1.417021 -6.356515 -0.385536 -19.784817 33.801655 -145.194924 1.988601 49.847723 153.50431 1.249697 0.176454 16.073135 15.749394 -6.643355 -45.528517 74.280818 -80.930294 51.284307 -42.972594 -71.27128 -88.034654 -174.078368 21.250195 -94.767896 -4.825118 -1.514049 1.757551 122.964278 -62.982155 68.234393 -6.935088 -29.84793 34.049664 -70.809573 -80.166065 -146.61185 -9.93183 29.326881 61.584678 25.567071 3.395699 -1.928375 142.315258 -63.38275 168.139574 -3.978203 24.392316 3.888623 -8.107528 -4.49852 -27.078907 -151.196968 -21.473447 -139.014436 138.800572 -81.320399 168.447803 1.968798 14.087737 9.459723 70.779413 5.562294 -134.598902 124.867316 -21.933466 55.719797 2.920211 -33.646213 21.565003 -87.108478 -20.574329 -26.806377 -122.618071 -50.195409 -126.556307 153.822389 18.02892 -111.175933 -39.775133 -69.299737 -109.936202 -11.637798 -22.239003 -29.349495 175.139827 28.355376 174.044899 120.705486 -3.01622 -173.810502 -1.472651 29.710704 -0.946559 -30.31541 46.209812 -127.56604 -19.085424 9.911681 124.579496 -15.101153 -15.904763 0.0 10.139753 -16.066533 3.028957 41.74737 47.562252 25.032256 -136.442797 -31.452708 134.05612 -90.194821 60.48933 -45.3419 138.135185 20.672304 107.068025 58.146389 17.713202 -3.299692 -82.655216 43.313479 1.106353
-31.8089 69.99300000000001 13.0912 -160.703858 -70.293439 163.15908 6.147593 9.307721 -180.0 2.059641 5.956607 -177.686207 2.913979 15.941582 57.249285 -19.438982 -14.519022 -50.434495 -9.091588 -2.159379 26.670905 5.621002 -2.615418 -49.876987 -151.491357 -5.245782 156.519897 37.708224 76.669765 -66.070125 -56.166882 -9.623485 167.386633 173.40651 -47.247666 149.558521 -66.7071 60.847297 40.148172 -34.590619 8.405044 -13.492126 -128.692557 -7.890748 160.741491 83.752855 63.053775 -86.13161 31.490479 -0.50244 -21.618513 -54.387436 -39.478138 6.54734 -161.215123 6.641877 -166.177746 -124.327396 -44.565194 -148.130306 -93.931643 -50.94201 -74.875198 -40.745546 13.571153 70.902565 8.685733 36.740428 -0.753115 103.584103 -2.433801 -92.327387 -43.68783 -8.904138 121.800526 -163.940311 -5.264395 -140.655118 -14.74516 -30.691779 -20.857343 14.128504 -32.279424 75.678827 24.919891 -71.449988 32.38152 17.738725 -55.533756 143.520323 28.262553 -2.989146 0.119791 96.835529 -75.923803 176.75598 10.647901 -11.467026 -40.804559 10.259538 -69.782003 67.238186 -138.192275 -44.58896 -102.725679 66.991079 6.740578 -31.34337 174.304536 81.337325 -0.0 -172.292398 57.174209 28.075165 60.287609 25.75079 42.37394 20.632914 24.475906 -153.766727 19.41532 -8.496014 -0.0 10.960089 -44.552689 7.892681 -44.046931 49.27419 -27.140187 112.019445 49.27395 -50.663997
-34.2987 67.3121 12.7636 -164.954142 -64.999486 166.699637 5.774472 14.224811 -1.189528 -3.344241 -12.376301 3.557996 -2.897993 31.086181 -154.994124 9.308641 38.367017 169.717216 -10.031256 -3.162661 34.922434 -15.412667 0.884135 -6.526827 -155.730847 -23.370849 160.767574 -51.77909 -42.530682 -28.217478 -75.89096 51.546551 -93.140128 -170.519896 3.485367 150.466955 70.692055 -88.025658 8.378013 -16.217275 22.128588 61.089219 -48.000627 -29.782433 -94.900272 -86.086705 -5.089713 140.139453 111.840879 82.026043 -111.145833 153.363563 -3.415242 -178.923091 -26.440719 65.519976 6.351124 27.698558 -39.510676 28.7296 -78.060723 -49.686439 -27.486724 -7.765921 -6.423087 49.522094 153.899112 42.629271 -156.181132 123.565209 -73.864339 68.896612 -105.760516 83.260749 -136.478046 -141.162074 -43.811426 -132.032066 94.552514 30.479481 -30.889447 144.336907 -32.172853 -56.180339 169.331585 -35.262309 -144.103017 13.276286 -19.355302 73.866756 -175.581632 13.973511 -161.686229 -179.774291 -78.203134 139.936515 -130.807079 -50.718262 -141.527097 96.116936 -28.271757 86.387532 -147.951006 -57.692469 -155.340629 173.833616 -26.684425 95.647651 -11.912402 18.792903 -7.451685 12.949711 -33.604379 61.250662 54.185987 22.318119 -138.727228 -61.290284 -23.966106 31.574555 36.205185 82.333932 -180.0 -175.409081 42.190841 -3.019271 -47.595205 52.058731 152.341892 -135.274386 73.631111 64.785807
-37.1455 66.00160000000001 12.0559 -165.04131 -57.847522 166.810364 6.682244 13.912452 -1.342185 -2.203179 -14.249746 1.053169 -11.037439 13.798813 -18.793009 22.052569 -11.579119 50.351542 -20.604418 -6.644913 35.424303 -24.903652 -5.471829 24.422628 -115.007786 54.322714 116.917073 62.049543 -20.901777 82.054084 -150.678317 -12.970102 12.093084 -158.162776 9.559531 146.748052 -9.7184 -4.506811 -19.702677 -152.32509 -44.773455 71.882022 -5.761234 42.995098 -63.61581 -12.665706 11.395746 91.37442 -87.102597 -63.437141 -110.2534 -14.435765 78.700187 59.720447 81.678903 81.102992 -66.135473 -11.181725 -1.214131 3.402222 161.720195 -0.207565 -157.913985 -116.840129 32.621372 -149.610999 4.214992 39.472141 3.846421 31.945903 -9.161714 -68.264261 -172.163467 -68.299594 122.068249 15.857867 70.216192 -20.606181 179.095168 4.660246 -85.471963 155.966914 32.501302 -92.668454 146.72114 -18.060945 -122.109573 171.457957 -50.627487 -140.003298 15.342268 9.496101 39.487034 -27.227143 37.869527 -67.446338 -144.110803 -37.474735 -145.285565 -154.101383 11.876143 148.344173 71.277244 -51.073396 46.539491 111.739192 25.905584 96.886446 -175.221289 52.938473 -5.980553 172.731443 41.280084 -155.582967 -53.233888 -36.476143 -123.092191 -139.428209 13.143931 167.073214 95.255175 9.148323 55.957486 -75.230977 -9.403369 -115.035493 -68.3196 -23.791762 -116.483438 -115.083664 -8.322965 144.624063
-40.14 65.4576 11.285499999999999 -163.921078 -54.349091 165.221634 8.399564 14.485786 -1.774212 -0.78441 -14.198095 -3.828062 1.09512 23.1848 105.684418 -27.350443 5.270329 -68.249708 -26.292858 -5.74404 24.24547 -17.849728 -6.706785 40.922926 11.82127 -48.490502 8.000716 -77.243665 -21.4053 -102.633765 -173.551234 -3.208838 -56.610046 -25.592893 -63.012389 -27.290749 -81.088446 43.749666 21.43028 -120.500264 -28.261536 37.408852 -161.600895 25.856196 159.337989 -155.07607 -73.191267 -139.38052 -84.029587 -84.590979 -93.223228 -131.037767 11.411993 -175.157239 -55.025287 -25.414055 -111.306086 -10.084809 68.867058 73.779676 165.703938 77.862044 -171.641253 20.850481 -18.227292 -36.398757 16.33435 -38.518223 34.845005 104.616776 -27.906554 -139.537901 -12.29896 -10.174339 76.922211 -129.159548 -53.738646 -137.965194 169.961702 3.870289 -88.919825 -176.04862 -44.262064 -172.181534 -13.88288 22.482025 -7.994206 179.389046 -18.350947 -95.711341 21.994262 -17.248586 54.682818 86.788885 -48.565149 -133.564726 49.185038 67.793749 -95.658876 4.539003 31.230225 15.151953 5.563125 27.660718 6.332197 -8.52559 41.420589 -74.401905 -11.504034 12.857196 17.358099 -0.229471 -19.790213 -0.677724 48.060967 46.70024 117.606233 -88.103557 48.215649 -177.63508 -49.151686 33.124124 -57.59884 120.950337 7.671844 10.713763 -44.070677 40.946504 61.018479 -174.453864 -39.200094 -6.018453
-43.1068 65.0022 10.4211 -159.259267 -59.564842 160.478494 8.341952 10.467578 111.393383 -7.547591 3.79966 -116.391108 -4.044243 12.707025 33.468146 -2.419969 -19.725843 3.383034 -38.472421 -2.331148 6.673914 -11.758986 -1.862581 17.940689 -13.366391 23.09725 15.580714 -37.277812 -74.931646 -125.503043 -159.448303 71.747737 -77.701943 -15.570181 -64.129267 -17.470815 -97.316805 47.644877 39.118133 -145.484957 -12.103418 33.688256 -1.12224 65.511726 -8.895375 61.558075 -60.426501 77.944245 -158.770767 48.798858 129.438143 3.981547 -63.769939 55.70538 34.775861 -2.425897 -15.3852 0.969883 13.880713 0.345869 -41.079821 18.310408 -17.128122 -95.433596 -39.414809 -79.747488 150.078033 -32.172286 168.585142 62.745671 -20.589976 115.956694 -98.056323 55.028829 98.360937 -178.137828 14.773979 -174.04933 1.300913 3.506222 1.05642 -92.095508 -69.768813 33.647284 149.639191 -60.31676 -133.001522 51.92833 -80.110925 69.656049 -175.026243 27.319658 172.708245 90.893987 -13.74486 32.693873 54.482111 -60.11802 99.448631 -44.293885 -3.668859 -5.149455 -13.126829 41.61481 -5.71689 -20.024035 -63.056273 -21.967189 -144.254841 55.382649 -41.173103 170.619113 60.762147 -54.575081 -23.283911 44.185152 64.545764 108.857822 -88.24944 19.33375 6.694256 -24.211827 -0.0 25.889478 -37.289285 -180.0 46.209225 -55.312904 104.208735 53.659237 -24.61663 160.145791
-46.462399999999995 64.0792 9.9824 -160.678706 -54.440779 162.573999 11.068161 10.040614 104.042866 -6.0271 2.644221 -108.733526 5.439614 21.803786 120.027477 -25.414159 17.885254 -81.900494 -12.391557 -2.423535 22.05138 -18.377636 -3.999898 24.362899 -126.395635 49.518643 125.567422 58.061039 -0.573505 77.138598 160.886412 57.790203 46.42892 -115.116705 52.545515 98.386272 -173.749612 7.052177 98.375217 -119.780788 38.82437 47.857843 -10.821387 60.872635 -1.592553 154.296861 1.461161 109.021712 -46.057117 35.427479 10.310007 -5.89881 29.472239 91.162884 15.956601 4.167488 -2.980272 -155.163956 -65.388003 175.787236 150.184711 67.145706 -157.334664 39.049806 -47.429542 25.963614 65.281261 87.308393 -64.485002 -107.089965 -19.756143 -175.371479 -76.542165 -60.404321 -84.519669 177.153206 35.999998 -174.83447 155.681619 1.770823 -95.226468 98.13626 -16.306287 30.30137 -53.784641 -69.576396 18.809042 17.780604 63.193572 70.593576 -14.750424 62.183076 40.716337 155.037213 -11.691626 -59.245946 -17.039289 1.708825 -0.366593 -11.338222 36.656057 4.559087 134.86561 -12.658549 134.700087 144.579687 -19.147272 102.583017 -15.287904 4.68176 21.776547 4.841134 -7.992325 31.347347 58.112676 18.663034 119.586376 -138.914319 58.085505 -132.662416 -48.216227 -8.929785 -34.343856 85.748171 -20.797243 88.487911 62.806593 21.301602 24.413167 -148.389375 -7.835055 86.387335
